<mxfile host="Electron" modified="2024-05-15T04:04:29.287Z" agent="Mozilla/5.0 (Windows NT 10.0; Win64; x64) AppleWebKit/537.36 (KHTML, like Gecko) draw.io/23.1.5 Chrome/120.0.6099.109 Electron/28.1.0 Safari/537.36" etag="qKbWulNoR-0OGCJHOTdJ" version="23.1.5" type="device">
  <diagram name="Page-1" id="TmOH8kGRN-QStQSgD8Vr">
    <mxGraphModel dx="2333" dy="1380" grid="1" gridSize="10" guides="1" tooltips="1" connect="1" arrows="1" fold="1" page="1" pageScale="1" pageWidth="2000" pageHeight="1400" math="0" shadow="0">
      <root>
        <mxCell id="0" />
        <mxCell id="1" parent="0" />
        <mxCell id="iNVdrL56-xvOq6BtC5d2-1" value="guest" style="rounded=0;whiteSpace=wrap;html=1;fillColor=#ffff88;strokeColor=#36393d;" parent="1" vertex="1">
          <mxGeometry x="300" y="810" width="120" height="60" as="geometry" />
        </mxCell>
        <mxCell id="iNVdrL56-xvOq6BtC5d2-2" value="admin" style="rounded=0;whiteSpace=wrap;html=1;fillColor=#ffff88;strokeColor=#36393d;" parent="1" vertex="1">
          <mxGeometry x="1635.31" y="559.9999999999999" width="120" height="60" as="geometry" />
        </mxCell>
        <mxCell id="iNVdrL56-xvOq6BtC5d2-3" value="room" style="rounded=0;whiteSpace=wrap;html=1;fillColor=#f9f7ed;strokeColor=#36393d;" parent="1" vertex="1">
          <mxGeometry x="650" y="150" width="120" height="60" as="geometry" />
        </mxCell>
        <mxCell id="iNVdrL56-xvOq6BtC5d2-5" value="room_type" style="rounded=0;whiteSpace=wrap;html=1;fillColor=#eeeeee;strokeColor=#36393d;" parent="1" vertex="1">
          <mxGeometry x="1240" y="380.03" width="120" height="60" as="geometry" />
        </mxCell>
        <mxCell id="iNVdrL56-xvOq6BtC5d2-11" value="rating" style="rounded=0;whiteSpace=wrap;html=1;fillColor=#eeeeee;strokeColor=#36393d;" parent="1" vertex="1">
          <mxGeometry x="260" y="180" width="120" height="60" as="geometry" />
        </mxCell>
        <mxCell id="iNVdrL56-xvOq6BtC5d2-12" value="booking" style="rounded=0;whiteSpace=wrap;html=1;fillColor=#cdeb8b;strokeColor=#36393d;" parent="1" vertex="1">
          <mxGeometry x="519.69" y="490" width="120" height="60" as="geometry" />
        </mxCell>
        <mxCell id="iNVdrL56-xvOq6BtC5d2-15" value="&lt;u&gt;id&lt;/u&gt;" style="ellipse;whiteSpace=wrap;html=1;align=center;fillColor=#eeeeee;strokeColor=#36393d;" parent="1" vertex="1">
          <mxGeometry x="1400" y="310" width="100" height="40" as="geometry" />
        </mxCell>
        <mxCell id="iNVdrL56-xvOq6BtC5d2-16" value="description" style="ellipse;whiteSpace=wrap;html=1;align=center;" parent="1" vertex="1">
          <mxGeometry x="1410" y="410" width="100" height="40" as="geometry" />
        </mxCell>
        <mxCell id="iNVdrL56-xvOq6BtC5d2-18" value="max_capacity" style="ellipse;whiteSpace=wrap;html=1;align=center;" parent="1" vertex="1">
          <mxGeometry x="1376.01" y="470" width="100" height="40" as="geometry" />
        </mxCell>
        <mxCell id="iNVdrL56-xvOq6BtC5d2-20" value="" style="endArrow=none;html=1;rounded=0;exitX=0;exitY=0.5;exitDx=0;exitDy=0;entryX=1;entryY=0;entryDx=0;entryDy=0;" parent="1" source="iNVdrL56-xvOq6BtC5d2-15" target="iNVdrL56-xvOq6BtC5d2-5" edge="1">
          <mxGeometry relative="1" as="geometry">
            <mxPoint x="840" y="670" as="sourcePoint" />
            <mxPoint x="1000" y="670" as="targetPoint" />
          </mxGeometry>
        </mxCell>
        <mxCell id="iNVdrL56-xvOq6BtC5d2-22" value="" style="endArrow=none;html=1;rounded=0;exitX=0;exitY=0.5;exitDx=0;exitDy=0;entryX=1;entryY=0.75;entryDx=0;entryDy=0;" parent="1" source="iNVdrL56-xvOq6BtC5d2-16" target="iNVdrL56-xvOq6BtC5d2-5" edge="1">
          <mxGeometry relative="1" as="geometry">
            <mxPoint x="840" y="670" as="sourcePoint" />
            <mxPoint x="1000" y="670" as="targetPoint" />
          </mxGeometry>
        </mxCell>
        <mxCell id="iNVdrL56-xvOq6BtC5d2-24" value="" style="endArrow=none;html=1;rounded=0;exitX=0;exitY=0;exitDx=0;exitDy=0;entryX=1;entryY=1;entryDx=0;entryDy=0;" parent="1" source="iNVdrL56-xvOq6BtC5d2-18" target="iNVdrL56-xvOq6BtC5d2-5" edge="1">
          <mxGeometry relative="1" as="geometry">
            <mxPoint x="550" y="520" as="sourcePoint" />
            <mxPoint x="560" y="480" as="targetPoint" />
          </mxGeometry>
        </mxCell>
        <mxCell id="iNVdrL56-xvOq6BtC5d2-26" value="&lt;u&gt;id&lt;/u&gt;" style="ellipse;whiteSpace=wrap;html=1;align=center;fillColor=#f9f7ed;strokeColor=#36393d;" parent="1" vertex="1">
          <mxGeometry x="560" y="20" width="100" height="40" as="geometry" />
        </mxCell>
        <mxCell id="iNVdrL56-xvOq6BtC5d2-28" value="" style="endArrow=none;html=1;rounded=0;exitX=0.5;exitY=1;exitDx=0;exitDy=0;entryX=0.25;entryY=0;entryDx=0;entryDy=0;" parent="1" source="iNVdrL56-xvOq6BtC5d2-26" target="iNVdrL56-xvOq6BtC5d2-3" edge="1">
          <mxGeometry relative="1" as="geometry">
            <mxPoint x="340" y="210" as="sourcePoint" />
            <mxPoint x="500" y="210" as="targetPoint" />
          </mxGeometry>
        </mxCell>
        <mxCell id="iNVdrL56-xvOq6BtC5d2-29" value="name" style="ellipse;whiteSpace=wrap;html=1;align=center;" parent="1" vertex="1">
          <mxGeometry x="670" y="10" width="100" height="40" as="geometry" />
        </mxCell>
        <mxCell id="iNVdrL56-xvOq6BtC5d2-30" value="" style="endArrow=none;html=1;rounded=0;exitX=0.5;exitY=1;exitDx=0;exitDy=0;entryX=0.5;entryY=0;entryDx=0;entryDy=0;" parent="1" source="iNVdrL56-xvOq6BtC5d2-29" target="iNVdrL56-xvOq6BtC5d2-3" edge="1">
          <mxGeometry relative="1" as="geometry">
            <mxPoint x="570" y="420" as="sourcePoint" />
            <mxPoint x="730" y="420" as="targetPoint" />
          </mxGeometry>
        </mxCell>
        <mxCell id="iNVdrL56-xvOq6BtC5d2-33" value="" style="endArrow=none;html=1;rounded=0;exitX=0;exitY=0;exitDx=0;exitDy=0;entryX=1;entryY=1;entryDx=0;entryDy=0;" parent="1" source="iNVdrL56-xvOq6BtC5d2-32" target="iNVdrL56-xvOq6BtC5d2-3" edge="1">
          <mxGeometry relative="1" as="geometry">
            <mxPoint x="550" y="240" as="sourcePoint" />
            <mxPoint x="800" y="240" as="targetPoint" />
          </mxGeometry>
        </mxCell>
        <mxCell id="iNVdrL56-xvOq6BtC5d2-35" value="n" style="resizable=0;html=1;whiteSpace=wrap;align=right;verticalAlign=bottom;" parent="iNVdrL56-xvOq6BtC5d2-33" connectable="0" vertex="1">
          <mxGeometry x="1" relative="1" as="geometry">
            <mxPoint x="20" as="offset" />
          </mxGeometry>
        </mxCell>
        <mxCell id="iNVdrL56-xvOq6BtC5d2-36" value="" style="endArrow=none;html=1;rounded=0;exitX=0;exitY=0;exitDx=0;exitDy=0;entryX=1;entryY=1;entryDx=0;entryDy=0;" parent="1" source="iNVdrL56-xvOq6BtC5d2-5" target="iNVdrL56-xvOq6BtC5d2-32" edge="1">
          <mxGeometry relative="1" as="geometry">
            <mxPoint x="1100" y="250" as="sourcePoint" />
            <mxPoint x="560" y="270" as="targetPoint" />
          </mxGeometry>
        </mxCell>
        <mxCell id="iNVdrL56-xvOq6BtC5d2-37" value="1" style="resizable=0;html=1;whiteSpace=wrap;align=left;verticalAlign=bottom;" parent="iNVdrL56-xvOq6BtC5d2-36" connectable="0" vertex="1">
          <mxGeometry x="-1" relative="1" as="geometry">
            <mxPoint x="-10" y="-10" as="offset" />
          </mxGeometry>
        </mxCell>
        <mxCell id="iNVdrL56-xvOq6BtC5d2-32" value="Has" style="shape=rhombus;perimeter=rhombusPerimeter;whiteSpace=wrap;html=1;align=center;" parent="1" vertex="1">
          <mxGeometry x="850" y="290" width="120" height="60" as="geometry" />
        </mxCell>
        <mxCell id="iNVdrL56-xvOq6BtC5d2-50" value="checkin_date" style="ellipse;whiteSpace=wrap;html=1;align=center;" parent="1" vertex="1">
          <mxGeometry x="569.69" y="330" width="100" height="40" as="geometry" />
        </mxCell>
        <mxCell id="iNVdrL56-xvOq6BtC5d2-51" value="checkout_date" style="ellipse;whiteSpace=wrap;html=1;align=center;" parent="1" vertex="1">
          <mxGeometry x="700" y="330" width="100" height="40" as="geometry" />
        </mxCell>
        <mxCell id="iNVdrL56-xvOq6BtC5d2-52" value="" style="endArrow=none;html=1;rounded=0;exitX=0.5;exitY=1;exitDx=0;exitDy=0;entryX=0.75;entryY=0;entryDx=0;entryDy=0;" parent="1" source="iNVdrL56-xvOq6BtC5d2-50" target="iNVdrL56-xvOq6BtC5d2-12" edge="1">
          <mxGeometry relative="1" as="geometry">
            <mxPoint x="1029.69" y="760" as="sourcePoint" />
            <mxPoint x="1189.69" y="760" as="targetPoint" />
          </mxGeometry>
        </mxCell>
        <mxCell id="iNVdrL56-xvOq6BtC5d2-53" value="" style="endArrow=none;html=1;rounded=0;entryX=0;entryY=1;entryDx=0;entryDy=0;exitX=1;exitY=0;exitDx=0;exitDy=0;" parent="1" source="iNVdrL56-xvOq6BtC5d2-12" target="iNVdrL56-xvOq6BtC5d2-51" edge="1">
          <mxGeometry relative="1" as="geometry">
            <mxPoint x="1349.69" y="450" as="sourcePoint" />
            <mxPoint x="1189.69" y="760" as="targetPoint" />
          </mxGeometry>
        </mxCell>
        <mxCell id="iNVdrL56-xvOq6BtC5d2-74" value="&lt;u&gt;id&lt;/u&gt;" style="ellipse;whiteSpace=wrap;html=1;align=center;fillColor=#eeeeee;strokeColor=#36393d;" parent="1" vertex="1">
          <mxGeometry x="240" y="50" width="100" height="40" as="geometry" />
        </mxCell>
        <mxCell id="iNVdrL56-xvOq6BtC5d2-75" value="" style="endArrow=none;html=1;rounded=0;exitX=0.5;exitY=0;exitDx=0;exitDy=0;entryX=0.5;entryY=1;entryDx=0;entryDy=0;" parent="1" source="iNVdrL56-xvOq6BtC5d2-11" target="iNVdrL56-xvOq6BtC5d2-74" edge="1">
          <mxGeometry relative="1" as="geometry">
            <mxPoint x="590" y="570" as="sourcePoint" />
            <mxPoint x="750" y="570" as="targetPoint" />
          </mxGeometry>
        </mxCell>
        <mxCell id="iNVdrL56-xvOq6BtC5d2-76" value="rating" style="ellipse;whiteSpace=wrap;html=1;align=center;" parent="1" vertex="1">
          <mxGeometry x="110" y="90" width="100" height="40" as="geometry" />
        </mxCell>
        <mxCell id="iNVdrL56-xvOq6BtC5d2-77" value="" style="endArrow=none;html=1;rounded=0;exitX=0;exitY=0;exitDx=0;exitDy=0;entryX=1;entryY=1;entryDx=0;entryDy=0;" parent="1" source="iNVdrL56-xvOq6BtC5d2-11" target="iNVdrL56-xvOq6BtC5d2-76" edge="1">
          <mxGeometry relative="1" as="geometry">
            <mxPoint x="590" y="570" as="sourcePoint" />
            <mxPoint x="750" y="570" as="targetPoint" />
          </mxGeometry>
        </mxCell>
        <mxCell id="iNVdrL56-xvOq6BtC5d2-78" value="review" style="ellipse;whiteSpace=wrap;html=1;align=center;" parent="1" vertex="1">
          <mxGeometry x="60" y="170" width="100" height="40" as="geometry" />
        </mxCell>
        <mxCell id="iNVdrL56-xvOq6BtC5d2-79" value="" style="endArrow=none;html=1;rounded=0;exitX=1;exitY=0.5;exitDx=0;exitDy=0;entryX=0;entryY=0.5;entryDx=0;entryDy=0;" parent="1" source="iNVdrL56-xvOq6BtC5d2-78" target="iNVdrL56-xvOq6BtC5d2-11" edge="1">
          <mxGeometry relative="1" as="geometry">
            <mxPoint x="590" y="570" as="sourcePoint" />
            <mxPoint x="750" y="570" as="targetPoint" />
          </mxGeometry>
        </mxCell>
        <mxCell id="iNVdrL56-xvOq6BtC5d2-86" value="" style="endArrow=none;html=1;rounded=0;exitX=0;exitY=0.5;exitDx=0;exitDy=0;entryX=1;entryY=0.5;entryDx=0;entryDy=0;" parent="1" source="iNVdrL56-xvOq6BtC5d2-89" target="iNVdrL56-xvOq6BtC5d2-11" edge="1">
          <mxGeometry relative="1" as="geometry">
            <mxPoint x="610" y="330" as="sourcePoint" />
            <mxPoint x="580" y="310" as="targetPoint" />
          </mxGeometry>
        </mxCell>
        <mxCell id="iNVdrL56-xvOq6BtC5d2-88" value="n" style="resizable=0;html=1;whiteSpace=wrap;align=right;verticalAlign=bottom;" parent="iNVdrL56-xvOq6BtC5d2-86" connectable="0" vertex="1">
          <mxGeometry x="1" relative="1" as="geometry">
            <mxPoint x="30" as="offset" />
          </mxGeometry>
        </mxCell>
        <mxCell id="iNVdrL56-xvOq6BtC5d2-90" value="" style="endArrow=none;html=1;rounded=0;exitX=0;exitY=0.25;exitDx=0;exitDy=0;entryX=1;entryY=0.5;entryDx=0;entryDy=0;" parent="1" source="iNVdrL56-xvOq6BtC5d2-3" target="iNVdrL56-xvOq6BtC5d2-89" edge="1">
          <mxGeometry relative="1" as="geometry">
            <mxPoint x="730" y="210" as="sourcePoint" />
            <mxPoint x="550" y="360" as="targetPoint" />
          </mxGeometry>
        </mxCell>
        <mxCell id="iNVdrL56-xvOq6BtC5d2-91" value="1" style="resizable=0;html=1;whiteSpace=wrap;align=left;verticalAlign=bottom;" parent="iNVdrL56-xvOq6BtC5d2-90" connectable="0" vertex="1">
          <mxGeometry x="-1" relative="1" as="geometry">
            <mxPoint x="-30" y="10" as="offset" />
          </mxGeometry>
        </mxCell>
        <mxCell id="iNVdrL56-xvOq6BtC5d2-89" value="Has" style="shape=rhombus;perimeter=rhombusPerimeter;whiteSpace=wrap;html=1;align=center;" parent="1" vertex="1">
          <mxGeometry x="440" y="100" width="120" height="60" as="geometry" />
        </mxCell>
        <mxCell id="iNVdrL56-xvOq6BtC5d2-104" value="total_price" style="ellipse;whiteSpace=wrap;html=1;align=center;" parent="1" vertex="1">
          <mxGeometry x="249.69" y="410" width="100" height="40" as="geometry" />
        </mxCell>
        <mxCell id="iNVdrL56-xvOq6BtC5d2-105" value="" style="endArrow=none;html=1;rounded=0;exitX=1;exitY=0.5;exitDx=0;exitDy=0;entryX=0;entryY=0;entryDx=0;entryDy=0;" parent="1" source="iNVdrL56-xvOq6BtC5d2-104" target="iNVdrL56-xvOq6BtC5d2-12" edge="1">
          <mxGeometry relative="1" as="geometry">
            <mxPoint x="1169.69" y="600" as="sourcePoint" />
            <mxPoint x="879.69" y="670" as="targetPoint" />
          </mxGeometry>
        </mxCell>
        <mxCell id="iNVdrL56-xvOq6BtC5d2-110" value="" style="endArrow=none;html=1;rounded=0;entryX=0.5;entryY=0;entryDx=0;entryDy=0;exitX=0.5;exitY=1;exitDx=0;exitDy=0;" parent="1" source="iNVdrL56-xvOq6BtC5d2-124" target="iNVdrL56-xvOq6BtC5d2-1" edge="1">
          <mxGeometry relative="1" as="geometry">
            <mxPoint x="90.00333333333305" y="805.8333333333333" as="sourcePoint" />
            <mxPoint x="191.67000000000002" y="870" as="targetPoint" />
          </mxGeometry>
        </mxCell>
        <mxCell id="iNVdrL56-xvOq6BtC5d2-112" value="1" style="resizable=0;html=1;whiteSpace=wrap;align=right;verticalAlign=bottom;" parent="iNVdrL56-xvOq6BtC5d2-110" connectable="0" vertex="1">
          <mxGeometry x="1" relative="1" as="geometry">
            <mxPoint x="10" y="-10" as="offset" />
          </mxGeometry>
        </mxCell>
        <mxCell id="iNVdrL56-xvOq6BtC5d2-117" value="" style="endArrow=none;html=1;rounded=0;exitX=1;exitY=0;exitDx=0;exitDy=0;entryX=0.5;entryY=1;entryDx=0;entryDy=0;" parent="1" source="iNVdrL56-xvOq6BtC5d2-120" target="iNVdrL56-xvOq6BtC5d2-12" edge="1">
          <mxGeometry relative="1" as="geometry">
            <mxPoint x="560" y="570" as="sourcePoint" />
            <mxPoint x="830" y="490" as="targetPoint" />
          </mxGeometry>
        </mxCell>
        <mxCell id="iNVdrL56-xvOq6BtC5d2-119" value="n" style="resizable=0;html=1;whiteSpace=wrap;align=right;verticalAlign=bottom;" parent="iNVdrL56-xvOq6BtC5d2-117" connectable="0" vertex="1">
          <mxGeometry x="1" relative="1" as="geometry">
            <mxPoint x="30" y="40" as="offset" />
          </mxGeometry>
        </mxCell>
        <mxCell id="iNVdrL56-xvOq6BtC5d2-121" value="" style="endArrow=none;html=1;rounded=0;exitX=1;exitY=0.5;exitDx=0;exitDy=0;entryX=0;entryY=0.5;entryDx=0;entryDy=0;" parent="1" source="iNVdrL56-xvOq6BtC5d2-1" target="iNVdrL56-xvOq6BtC5d2-120" edge="1">
          <mxGeometry relative="1" as="geometry">
            <mxPoint x="690" y="600" as="sourcePoint" />
            <mxPoint x="970" y="390" as="targetPoint" />
          </mxGeometry>
        </mxCell>
        <mxCell id="iNVdrL56-xvOq6BtC5d2-122" value="1" style="resizable=0;html=1;whiteSpace=wrap;align=left;verticalAlign=bottom;" parent="iNVdrL56-xvOq6BtC5d2-121" connectable="0" vertex="1">
          <mxGeometry x="-1" relative="1" as="geometry">
            <mxPoint y="-8" as="offset" />
          </mxGeometry>
        </mxCell>
        <mxCell id="iNVdrL56-xvOq6BtC5d2-120" value="Has" style="shape=rhombus;perimeter=rhombusPerimeter;whiteSpace=wrap;html=1;align=center;" parent="1" vertex="1">
          <mxGeometry x="600" y="860" width="120" height="60" as="geometry" />
        </mxCell>
        <mxCell id="iNVdrL56-xvOq6BtC5d2-125" value="" style="endArrow=none;html=1;rounded=0;exitX=0.5;exitY=1;exitDx=0;exitDy=0;entryX=0.5;entryY=0;entryDx=0;entryDy=0;" parent="1" source="iNVdrL56-xvOq6BtC5d2-11" target="iNVdrL56-xvOq6BtC5d2-124" edge="1">
          <mxGeometry relative="1" as="geometry">
            <mxPoint x="350" y="460" as="sourcePoint" />
            <mxPoint x="570" y="600" as="targetPoint" />
          </mxGeometry>
        </mxCell>
        <mxCell id="iNVdrL56-xvOq6BtC5d2-126" value="n" style="resizable=0;html=1;whiteSpace=wrap;align=left;verticalAlign=bottom;" parent="iNVdrL56-xvOq6BtC5d2-125" connectable="0" vertex="1">
          <mxGeometry x="-1" relative="1" as="geometry">
            <mxPoint x="12" y="20" as="offset" />
          </mxGeometry>
        </mxCell>
        <mxCell id="iNVdrL56-xvOq6BtC5d2-124" value="Leave" style="shape=rhombus;perimeter=rhombusPerimeter;whiteSpace=wrap;html=1;align=center;" parent="1" vertex="1">
          <mxGeometry x="60" y="460" width="120" height="60" as="geometry" />
        </mxCell>
        <mxCell id="iNVdrL56-xvOq6BtC5d2-135" value="&lt;u&gt;id&lt;/u&gt;" style="ellipse;whiteSpace=wrap;html=1;align=center;fillColor=#cdeb8b;strokeColor=#36393d;" parent="1" vertex="1">
          <mxGeometry x="329.69" y="350" width="100" height="40" as="geometry" />
        </mxCell>
        <mxCell id="iNVdrL56-xvOq6BtC5d2-136" value="" style="endArrow=none;html=1;rounded=0;entryX=1;entryY=1;entryDx=0;entryDy=0;exitX=0.25;exitY=0;exitDx=0;exitDy=0;" parent="1" source="iNVdrL56-xvOq6BtC5d2-12" target="iNVdrL56-xvOq6BtC5d2-135" edge="1">
          <mxGeometry relative="1" as="geometry">
            <mxPoint x="839.69" y="540" as="sourcePoint" />
            <mxPoint x="709.69" y="830" as="targetPoint" />
          </mxGeometry>
        </mxCell>
        <mxCell id="R3hhYn6RmcttiKyY-PZd-6" value="&lt;u&gt;id&lt;/u&gt;" style="ellipse;whiteSpace=wrap;html=1;align=center;fillColor=#ffff88;strokeColor=#36393d;" parent="1" vertex="1">
          <mxGeometry x="1551.32" y="469.9999999999999" width="100" height="40" as="geometry" />
        </mxCell>
        <mxCell id="R3hhYn6RmcttiKyY-PZd-7" value="first_name" style="ellipse;whiteSpace=wrap;html=1;align=center;" parent="1" vertex="1">
          <mxGeometry x="1635.31" y="420.00000000000034" width="100" height="40" as="geometry" />
        </mxCell>
        <mxCell id="R3hhYn6RmcttiKyY-PZd-8" value="email" style="ellipse;whiteSpace=wrap;html=1;align=center;" parent="1" vertex="1">
          <mxGeometry x="1865.31" y="460.00000000000034" width="100" height="40" as="geometry" />
        </mxCell>
        <mxCell id="R3hhYn6RmcttiKyY-PZd-9" value="phone_number" style="ellipse;whiteSpace=wrap;html=1;align=center;" parent="1" vertex="1">
          <mxGeometry x="1875.31" y="590.0000000000003" width="100" height="40" as="geometry" />
        </mxCell>
        <mxCell id="R3hhYn6RmcttiKyY-PZd-10" value="" style="endArrow=none;html=1;rounded=0;entryX=0.5;entryY=1;entryDx=0;entryDy=0;exitX=0.25;exitY=0;exitDx=0;exitDy=0;" parent="1" source="iNVdrL56-xvOq6BtC5d2-2" target="R3hhYn6RmcttiKyY-PZd-6" edge="1">
          <mxGeometry width="50" height="50" relative="1" as="geometry">
            <mxPoint x="1115.31" y="1070.4000000000003" as="sourcePoint" />
            <mxPoint x="1165.31" y="1020.3999999999999" as="targetPoint" />
          </mxGeometry>
        </mxCell>
        <mxCell id="R3hhYn6RmcttiKyY-PZd-11" value="" style="endArrow=none;html=1;rounded=0;entryX=0;entryY=0.5;entryDx=0;entryDy=0;exitX=1;exitY=0;exitDx=0;exitDy=0;" parent="1" source="iNVdrL56-xvOq6BtC5d2-2" target="R3hhYn6RmcttiKyY-PZd-8" edge="1">
          <mxGeometry width="50" height="50" relative="1" as="geometry">
            <mxPoint x="1515.31" y="600" as="sourcePoint" />
            <mxPoint x="1325.31" y="990.3999999999999" as="targetPoint" />
          </mxGeometry>
        </mxCell>
        <mxCell id="R3hhYn6RmcttiKyY-PZd-12" value="" style="endArrow=none;html=1;rounded=0;entryX=0;entryY=0.5;entryDx=0;entryDy=0;exitX=1;exitY=0.75;exitDx=0;exitDy=0;" parent="1" source="iNVdrL56-xvOq6BtC5d2-2" target="R3hhYn6RmcttiKyY-PZd-9" edge="1">
          <mxGeometry width="50" height="50" relative="1" as="geometry">
            <mxPoint x="1845.31" y="630" as="sourcePoint" />
            <mxPoint x="1325.31" y="990.3999999999999" as="targetPoint" />
          </mxGeometry>
        </mxCell>
        <mxCell id="R3hhYn6RmcttiKyY-PZd-13" value="" style="endArrow=none;html=1;rounded=0;exitX=0.5;exitY=1;exitDx=0;exitDy=0;entryX=0.5;entryY=0;entryDx=0;entryDy=0;" parent="1" source="R3hhYn6RmcttiKyY-PZd-7" target="iNVdrL56-xvOq6BtC5d2-2" edge="1">
          <mxGeometry width="50" height="50" relative="1" as="geometry">
            <mxPoint x="1275.31" y="1040.4" as="sourcePoint" />
            <mxPoint x="1365.31" y="960.3999999999999" as="targetPoint" />
          </mxGeometry>
        </mxCell>
        <mxCell id="R3hhYn6RmcttiKyY-PZd-14" value="password" style="ellipse;whiteSpace=wrap;html=1;align=center;" parent="1" vertex="1">
          <mxGeometry x="1875.31" y="530.0000000000003" width="100" height="40" as="geometry" />
        </mxCell>
        <mxCell id="R3hhYn6RmcttiKyY-PZd-15" value="" style="endArrow=none;html=1;rounded=0;entryX=0;entryY=0.5;entryDx=0;entryDy=0;exitX=1;exitY=0.5;exitDx=0;exitDy=0;" parent="1" source="iNVdrL56-xvOq6BtC5d2-2" target="R3hhYn6RmcttiKyY-PZd-14" edge="1">
          <mxGeometry width="50" height="50" relative="1" as="geometry">
            <mxPoint x="1535.31" y="620" as="sourcePoint" />
            <mxPoint x="1355.31" y="1090.4000000000003" as="targetPoint" />
          </mxGeometry>
        </mxCell>
        <mxCell id="R3hhYn6RmcttiKyY-PZd-30" value="&lt;u&gt;id&lt;/u&gt;" style="ellipse;whiteSpace=wrap;html=1;align=center;fillColor=#ffff88;strokeColor=#36393d;" parent="1" vertex="1">
          <mxGeometry x="40.000000000000014" y="710" width="100" height="40" as="geometry" />
        </mxCell>
        <mxCell id="R3hhYn6RmcttiKyY-PZd-31" value="first_name" style="ellipse;whiteSpace=wrap;html=1;align=center;" parent="1" vertex="1">
          <mxGeometry x="30.00000000000003" y="800" width="100" height="40" as="geometry" />
        </mxCell>
        <mxCell id="R3hhYn6RmcttiKyY-PZd-32" value="email" style="ellipse;whiteSpace=wrap;html=1;align=center;" parent="1" vertex="1">
          <mxGeometry x="30.000000000000014" y="910" width="100" height="40" as="geometry" />
        </mxCell>
        <mxCell id="R3hhYn6RmcttiKyY-PZd-33" value="phone_number" style="ellipse;whiteSpace=wrap;html=1;align=center;" parent="1" vertex="1">
          <mxGeometry x="90" y="1030.22" width="100" height="40" as="geometry" />
        </mxCell>
        <mxCell id="R3hhYn6RmcttiKyY-PZd-34" value="password" style="ellipse;whiteSpace=wrap;html=1;align=center;" parent="1" vertex="1">
          <mxGeometry x="40.000000000000014" y="980" width="100" height="40" as="geometry" />
        </mxCell>
        <mxCell id="R3hhYn6RmcttiKyY-PZd-35" value="last_name" style="ellipse;whiteSpace=wrap;html=1;align=center;" parent="1" vertex="1">
          <mxGeometry x="30" y="860" width="100" height="40" as="geometry" />
        </mxCell>
        <mxCell id="R3hhYn6RmcttiKyY-PZd-39" value="" style="endArrow=none;html=1;rounded=0;exitX=1;exitY=0.5;exitDx=0;exitDy=0;entryX=0;entryY=0.25;entryDx=0;entryDy=0;" parent="1" source="R3hhYn6RmcttiKyY-PZd-42" target="iNVdrL56-xvOq6BtC5d2-2" edge="1">
          <mxGeometry relative="1" as="geometry">
            <mxPoint x="1230" y="680" as="sourcePoint" />
            <mxPoint x="1390" y="680" as="targetPoint" />
          </mxGeometry>
        </mxCell>
        <mxCell id="R3hhYn6RmcttiKyY-PZd-41" value="1" style="resizable=0;html=1;whiteSpace=wrap;align=right;verticalAlign=bottom;" parent="R3hhYn6RmcttiKyY-PZd-39" connectable="0" vertex="1">
          <mxGeometry x="1" relative="1" as="geometry">
            <mxPoint x="-10" y="-5" as="offset" />
          </mxGeometry>
        </mxCell>
        <mxCell id="R3hhYn6RmcttiKyY-PZd-43" value="" style="endArrow=none;html=1;rounded=0;exitX=1;exitY=0.75;exitDx=0;exitDy=0;entryX=0;entryY=0.5;entryDx=0;entryDy=0;" parent="1" source="iNVdrL56-xvOq6BtC5d2-12" target="R3hhYn6RmcttiKyY-PZd-42" edge="1">
          <mxGeometry relative="1" as="geometry">
            <mxPoint x="1280" y="380" as="sourcePoint" />
            <mxPoint x="1360" y="780" as="targetPoint" />
          </mxGeometry>
        </mxCell>
        <mxCell id="R3hhYn6RmcttiKyY-PZd-44" value="n" style="resizable=0;html=1;whiteSpace=wrap;align=left;verticalAlign=bottom;" parent="R3hhYn6RmcttiKyY-PZd-43" connectable="0" vertex="1">
          <mxGeometry x="-1" relative="1" as="geometry">
            <mxPoint x="20" y="5" as="offset" />
          </mxGeometry>
        </mxCell>
        <mxCell id="R3hhYn6RmcttiKyY-PZd-42" value="Manage" style="shape=rhombus;perimeter=rhombusPerimeter;whiteSpace=wrap;html=1;align=center;" parent="1" vertex="1">
          <mxGeometry x="1160" y="720" width="120" height="60" as="geometry" />
        </mxCell>
        <mxCell id="R3hhYn6RmcttiKyY-PZd-49" value="" style="endArrow=none;html=1;rounded=0;exitX=1;exitY=1;exitDx=0;exitDy=0;entryX=0.25;entryY=0;entryDx=0;entryDy=0;" parent="1" source="R3hhYn6RmcttiKyY-PZd-30" target="iNVdrL56-xvOq6BtC5d2-1" edge="1">
          <mxGeometry relative="1" as="geometry">
            <mxPoint x="311.67" y="860" as="sourcePoint" />
            <mxPoint x="471.67" y="860" as="targetPoint" />
          </mxGeometry>
        </mxCell>
        <mxCell id="R3hhYn6RmcttiKyY-PZd-50" value="" style="endArrow=none;html=1;rounded=0;exitX=1;exitY=0.5;exitDx=0;exitDy=0;entryX=0;entryY=0;entryDx=0;entryDy=0;" parent="1" source="R3hhYn6RmcttiKyY-PZd-31" target="iNVdrL56-xvOq6BtC5d2-1" edge="1">
          <mxGeometry relative="1" as="geometry">
            <mxPoint x="311.67" y="860" as="sourcePoint" />
            <mxPoint x="300" y="810" as="targetPoint" />
          </mxGeometry>
        </mxCell>
        <mxCell id="R3hhYn6RmcttiKyY-PZd-51" value="" style="endArrow=none;html=1;rounded=0;exitX=1;exitY=0.5;exitDx=0;exitDy=0;entryX=0;entryY=0.25;entryDx=0;entryDy=0;" parent="1" source="R3hhYn6RmcttiKyY-PZd-35" target="iNVdrL56-xvOq6BtC5d2-1" edge="1">
          <mxGeometry relative="1" as="geometry">
            <mxPoint x="311.67" y="969.22" as="sourcePoint" />
            <mxPoint x="471.67" y="969.22" as="targetPoint" />
          </mxGeometry>
        </mxCell>
        <mxCell id="R3hhYn6RmcttiKyY-PZd-52" value="" style="endArrow=none;html=1;rounded=0;exitX=1;exitY=0.5;exitDx=0;exitDy=0;entryX=0;entryY=0.5;entryDx=0;entryDy=0;" parent="1" source="R3hhYn6RmcttiKyY-PZd-32" target="iNVdrL56-xvOq6BtC5d2-1" edge="1">
          <mxGeometry relative="1" as="geometry">
            <mxPoint x="281.67" y="989.22" as="sourcePoint" />
            <mxPoint x="451.67" y="1019.22" as="targetPoint" />
          </mxGeometry>
        </mxCell>
        <mxCell id="R3hhYn6RmcttiKyY-PZd-53" value="" style="endArrow=none;html=1;rounded=0;exitX=1;exitY=0.5;exitDx=0;exitDy=0;entryX=0;entryY=0.75;entryDx=0;entryDy=0;" parent="1" source="R3hhYn6RmcttiKyY-PZd-34" target="iNVdrL56-xvOq6BtC5d2-1" edge="1">
          <mxGeometry relative="1" as="geometry">
            <mxPoint x="281.67" y="999.22" as="sourcePoint" />
            <mxPoint x="441.67" y="999.22" as="targetPoint" />
          </mxGeometry>
        </mxCell>
        <mxCell id="R3hhYn6RmcttiKyY-PZd-54" value="" style="endArrow=none;html=1;rounded=0;exitX=1;exitY=0;exitDx=0;exitDy=0;entryX=0;entryY=1;entryDx=0;entryDy=0;" parent="1" source="R3hhYn6RmcttiKyY-PZd-33" target="iNVdrL56-xvOq6BtC5d2-1" edge="1">
          <mxGeometry relative="1" as="geometry">
            <mxPoint x="281.67" y="999.22" as="sourcePoint" />
            <mxPoint x="441.67" y="999.22" as="targetPoint" />
          </mxGeometry>
        </mxCell>
        <mxCell id="DpSDj8rsgAigNNCUo-79-3" value="rate_date" style="ellipse;whiteSpace=wrap;html=1;align=center;" parent="1" vertex="1">
          <mxGeometry x="80" y="260" width="100" height="40" as="geometry" />
        </mxCell>
        <mxCell id="DpSDj8rsgAigNNCUo-79-4" value="" style="endArrow=none;html=1;rounded=0;exitX=1;exitY=0.5;exitDx=0;exitDy=0;entryX=0;entryY=1;entryDx=0;entryDy=0;" parent="1" source="DpSDj8rsgAigNNCUo-79-3" target="iNVdrL56-xvOq6BtC5d2-11" edge="1">
          <mxGeometry relative="1" as="geometry">
            <mxPoint x="155" y="236" as="sourcePoint" />
            <mxPoint x="270" y="240" as="targetPoint" />
          </mxGeometry>
        </mxCell>
        <mxCell id="s2W95KAS4lfjPpWJaVkB-1" value="status" style="ellipse;whiteSpace=wrap;html=1;align=center;" parent="1" vertex="1">
          <mxGeometry x="140.00000000000003" y="1080.22" width="100" height="40" as="geometry" />
        </mxCell>
        <mxCell id="s2W95KAS4lfjPpWJaVkB-2" value="" style="endArrow=none;html=1;rounded=0;exitX=1;exitY=0;exitDx=0;exitDy=0;entryX=0.25;entryY=1;entryDx=0;entryDy=0;" parent="1" source="s2W95KAS4lfjPpWJaVkB-1" target="iNVdrL56-xvOq6BtC5d2-1" edge="1">
          <mxGeometry width="50" height="50" relative="1" as="geometry">
            <mxPoint x="431.67" y="1049.22" as="sourcePoint" />
            <mxPoint x="410" y="1020" as="targetPoint" />
          </mxGeometry>
        </mxCell>
        <mxCell id="K1WTxmESKm2JUMPnz4bz-3" value="image" style="ellipse;whiteSpace=wrap;html=1;align=center;" parent="1" vertex="1">
          <mxGeometry x="240" y="1100" width="100" height="40" as="geometry" />
        </mxCell>
        <mxCell id="K1WTxmESKm2JUMPnz4bz-5" value="" style="endArrow=none;html=1;rounded=0;entryX=0.5;entryY=1;entryDx=0;entryDy=0;exitX=0.5;exitY=0;exitDx=0;exitDy=0;" parent="1" source="K1WTxmESKm2JUMPnz4bz-3" target="iNVdrL56-xvOq6BtC5d2-1" edge="1">
          <mxGeometry width="50" height="50" relative="1" as="geometry">
            <mxPoint x="391.67" y="1109.22" as="sourcePoint" />
            <mxPoint x="431.67" y="999.22" as="targetPoint" />
          </mxGeometry>
        </mxCell>
        <mxCell id="K1WTxmESKm2JUMPnz4bz-6" value="room_type_image" style="rounded=0;whiteSpace=wrap;html=1;fillColor=#ffcc99;strokeColor=#36393d;" parent="1" vertex="1">
          <mxGeometry x="1635.31" y="249.99999999999997" width="120" height="60" as="geometry" />
        </mxCell>
        <mxCell id="K1WTxmESKm2JUMPnz4bz-7" value="&lt;u&gt;id&lt;/u&gt;" style="ellipse;whiteSpace=wrap;html=1;align=center;fillColor=#ffcc99;strokeColor=#36393d;" parent="1" vertex="1">
          <mxGeometry x="1865.31" y="209.99999999999997" width="100" height="40" as="geometry" />
        </mxCell>
        <mxCell id="K1WTxmESKm2JUMPnz4bz-8" value="" style="endArrow=none;html=1;rounded=0;exitX=0;exitY=0.5;exitDx=0;exitDy=0;entryX=1;entryY=0.25;entryDx=0;entryDy=0;" parent="1" source="K1WTxmESKm2JUMPnz4bz-7" target="K1WTxmESKm2JUMPnz4bz-6" edge="1">
          <mxGeometry relative="1" as="geometry">
            <mxPoint x="1689.3" y="550.03" as="sourcePoint" />
            <mxPoint x="1849.3" y="550.03" as="targetPoint" />
          </mxGeometry>
        </mxCell>
        <mxCell id="K1WTxmESKm2JUMPnz4bz-9" value="path" style="ellipse;whiteSpace=wrap;html=1;align=center;" parent="1" vertex="1">
          <mxGeometry x="1840" y="300" width="100" height="40" as="geometry" />
        </mxCell>
        <mxCell id="K1WTxmESKm2JUMPnz4bz-10" value="" style="endArrow=none;html=1;rounded=0;entryX=0;entryY=0.5;entryDx=0;entryDy=0;exitX=1;exitY=0.75;exitDx=0;exitDy=0;" parent="1" source="K1WTxmESKm2JUMPnz4bz-6" target="K1WTxmESKm2JUMPnz4bz-9" edge="1">
          <mxGeometry relative="1" as="geometry">
            <mxPoint x="1679.3" y="590.03" as="sourcePoint" />
            <mxPoint x="1879.3" y="580.03" as="targetPoint" />
          </mxGeometry>
        </mxCell>
        <mxCell id="K1WTxmESKm2JUMPnz4bz-12" value="" style="endArrow=none;html=1;rounded=0;exitX=1;exitY=0.5;exitDx=0;exitDy=0;entryX=0;entryY=0.5;entryDx=0;entryDy=0;" parent="1" source="itNhFQf80mc7cECG1uvD-1" target="K1WTxmESKm2JUMPnz4bz-6" edge="1">
          <mxGeometry relative="1" as="geometry">
            <mxPoint x="1130" y="180" as="sourcePoint" />
            <mxPoint x="1140" y="170" as="targetPoint" />
          </mxGeometry>
        </mxCell>
        <mxCell id="K1WTxmESKm2JUMPnz4bz-14" value="n" style="resizable=0;html=1;whiteSpace=wrap;align=right;verticalAlign=bottom;" parent="K1WTxmESKm2JUMPnz4bz-12" connectable="0" vertex="1">
          <mxGeometry x="1" relative="1" as="geometry">
            <mxPoint x="-10" y="-10" as="offset" />
          </mxGeometry>
        </mxCell>
        <mxCell id="K1WTxmESKm2JUMPnz4bz-20" value="" style="endArrow=none;html=1;rounded=0;exitX=0.5;exitY=0;exitDx=0;exitDy=0;entryX=0;entryY=0.5;entryDx=0;entryDy=0;" parent="1" source="iNVdrL56-xvOq6BtC5d2-5" target="itNhFQf80mc7cECG1uvD-1" edge="1">
          <mxGeometry relative="1" as="geometry">
            <mxPoint x="850" y="195" as="sourcePoint" />
            <mxPoint x="1030" y="170" as="targetPoint" />
          </mxGeometry>
        </mxCell>
        <mxCell id="K1WTxmESKm2JUMPnz4bz-21" value="1" style="resizable=0;html=1;whiteSpace=wrap;align=left;verticalAlign=bottom;" parent="K1WTxmESKm2JUMPnz4bz-20" connectable="0" vertex="1">
          <mxGeometry x="-1" relative="1" as="geometry">
            <mxPoint y="-10" as="offset" />
          </mxGeometry>
        </mxCell>
        <mxCell id="itNhFQf80mc7cECG1uvD-1" value="Has" style="shape=rhombus;perimeter=rhombusPerimeter;whiteSpace=wrap;html=1;align=center;" parent="1" vertex="1">
          <mxGeometry x="1460" y="210" width="120" height="60" as="geometry" />
        </mxCell>
        <mxCell id="bVqcQ3grL0vSUal03duc-1" value="level" style="ellipse;whiteSpace=wrap;html=1;align=center;" parent="1" vertex="1">
          <mxGeometry x="1855.31" y="650.0000000000003" width="100" height="40" as="geometry" />
        </mxCell>
        <mxCell id="bVqcQ3grL0vSUal03duc-2" value="" style="endArrow=none;html=1;rounded=0;exitX=0.75;exitY=1;exitDx=0;exitDy=0;entryX=0;entryY=0.5;entryDx=0;entryDy=0;" parent="1" source="iNVdrL56-xvOq6BtC5d2-2" target="bVqcQ3grL0vSUal03duc-1" edge="1">
          <mxGeometry width="50" height="50" relative="1" as="geometry">
            <mxPoint x="1305.31" y="1020.3999999999999" as="sourcePoint" />
            <mxPoint x="1435.31" y="960.3999999999999" as="targetPoint" />
          </mxGeometry>
        </mxCell>
        <mxCell id="Le8puVAHUVt7-UQV3lxj-1" value="last_name" style="ellipse;whiteSpace=wrap;html=1;align=center;" parent="1" vertex="1">
          <mxGeometry x="1745.31" y="430.00000000000034" width="100" height="40" as="geometry" />
        </mxCell>
        <mxCell id="Le8puVAHUVt7-UQV3lxj-3" value="" style="endArrow=none;html=1;rounded=0;exitX=0.5;exitY=1;exitDx=0;exitDy=0;entryX=0.75;entryY=0;entryDx=0;entryDy=0;" parent="1" source="Le8puVAHUVt7-UQV3lxj-1" target="iNVdrL56-xvOq6BtC5d2-2" edge="1">
          <mxGeometry width="50" height="50" relative="1" as="geometry">
            <mxPoint x="1095.31" y="1090.4000000000003" as="sourcePoint" />
            <mxPoint x="1215.31" y="990.3999999999999" as="targetPoint" />
          </mxGeometry>
        </mxCell>
        <mxCell id="Le8puVAHUVt7-UQV3lxj-7" value="image" style="ellipse;whiteSpace=wrap;html=1;align=center;" parent="1" vertex="1">
          <mxGeometry x="1795.31" y="710.0000000000001" width="100" height="40" as="geometry" />
        </mxCell>
        <mxCell id="Le8puVAHUVt7-UQV3lxj-8" value="" style="endArrow=none;html=1;rounded=0;exitX=0.5;exitY=1;exitDx=0;exitDy=0;entryX=0;entryY=0;entryDx=0;entryDy=0;" parent="1" source="iNVdrL56-xvOq6BtC5d2-2" target="Le8puVAHUVt7-UQV3lxj-7" edge="1">
          <mxGeometry width="50" height="50" relative="1" as="geometry">
            <mxPoint x="1335.31" y="975.3999999999999" as="sourcePoint" />
            <mxPoint x="1815.31" y="690" as="targetPoint" />
          </mxGeometry>
        </mxCell>
        <mxCell id="n2j3eRoGuqpQMVSQmy-N-2" value="payment" style="rounded=0;whiteSpace=wrap;html=1;fillColor=#cdeb8b;strokeColor=#36393d;" parent="1" vertex="1">
          <mxGeometry x="680" y="1110.0000000000002" width="120" height="60" as="geometry" />
        </mxCell>
        <mxCell id="n2j3eRoGuqpQMVSQmy-N-3" value="&lt;u&gt;id&lt;/u&gt;" style="ellipse;whiteSpace=wrap;html=1;align=center;fillColor=#cdeb8b;strokeColor=#36393d;" parent="1" vertex="1">
          <mxGeometry x="430" y="1220.0000000000002" width="100" height="40" as="geometry" />
        </mxCell>
        <mxCell id="n2j3eRoGuqpQMVSQmy-N-4" value="" style="endArrow=none;html=1;rounded=0;exitX=0.5;exitY=0;exitDx=0;exitDy=0;entryX=0;entryY=1;entryDx=0;entryDy=0;" parent="1" source="n2j3eRoGuqpQMVSQmy-N-3" target="n2j3eRoGuqpQMVSQmy-N-2" edge="1">
          <mxGeometry relative="1" as="geometry">
            <mxPoint x="490" y="1067.89" as="sourcePoint" />
            <mxPoint x="670" y="977.89" as="targetPoint" />
          </mxGeometry>
        </mxCell>
        <mxCell id="n2j3eRoGuqpQMVSQmy-N-5" value="date" style="ellipse;whiteSpace=wrap;html=1;align=center;" parent="1" vertex="1">
          <mxGeometry x="510" y="1260.0000000000002" width="100" height="40" as="geometry" />
        </mxCell>
        <mxCell id="n2j3eRoGuqpQMVSQmy-N-6" value="" style="endArrow=none;html=1;rounded=0;entryX=0.5;entryY=0;entryDx=0;entryDy=0;exitX=0.25;exitY=1;exitDx=0;exitDy=0;" parent="1" source="n2j3eRoGuqpQMVSQmy-N-2" target="n2j3eRoGuqpQMVSQmy-N-5" edge="1">
          <mxGeometry relative="1" as="geometry">
            <mxPoint x="790" y="1187.89" as="sourcePoint" />
            <mxPoint x="680" y="1097.89" as="targetPoint" />
          </mxGeometry>
        </mxCell>
        <mxCell id="n2j3eRoGuqpQMVSQmy-N-7" value="" style="endArrow=none;html=1;rounded=0;exitX=0.5;exitY=1;exitDx=0;exitDy=0;entryX=0.5;entryY=0;entryDx=0;entryDy=0;" parent="1" source="n2j3eRoGuqpQMVSQmy-N-10" target="n2j3eRoGuqpQMVSQmy-N-2" edge="1">
          <mxGeometry relative="1" as="geometry">
            <mxPoint x="1060" y="700" as="sourcePoint" />
            <mxPoint x="1220" y="700" as="targetPoint" />
          </mxGeometry>
        </mxCell>
        <mxCell id="n2j3eRoGuqpQMVSQmy-N-9" value="n" style="resizable=0;html=1;whiteSpace=wrap;align=right;verticalAlign=bottom;" parent="n2j3eRoGuqpQMVSQmy-N-7" connectable="0" vertex="1">
          <mxGeometry x="1" relative="1" as="geometry">
            <mxPoint x="10" y="-10" as="offset" />
          </mxGeometry>
        </mxCell>
        <mxCell id="n2j3eRoGuqpQMVSQmy-N-11" value="" style="endArrow=none;html=1;rounded=0;exitX=0.75;exitY=1;exitDx=0;exitDy=0;entryX=0.5;entryY=0;entryDx=0;entryDy=0;" parent="1" source="iNVdrL56-xvOq6BtC5d2-12" target="n2j3eRoGuqpQMVSQmy-N-10" edge="1">
          <mxGeometry relative="1" as="geometry">
            <mxPoint x="830" y="590" as="sourcePoint" />
            <mxPoint x="1230" y="690" as="targetPoint" />
          </mxGeometry>
        </mxCell>
        <mxCell id="n2j3eRoGuqpQMVSQmy-N-12" value="1" style="resizable=0;html=1;whiteSpace=wrap;align=left;verticalAlign=bottom;" parent="n2j3eRoGuqpQMVSQmy-N-11" connectable="0" vertex="1">
          <mxGeometry x="-1" relative="1" as="geometry">
            <mxPoint x="20" y="30" as="offset" />
          </mxGeometry>
        </mxCell>
        <mxCell id="n2j3eRoGuqpQMVSQmy-N-10" value="Has" style="shape=rhombus;perimeter=rhombusPerimeter;whiteSpace=wrap;html=1;align=center;" parent="1" vertex="1">
          <mxGeometry x="760" y="890" width="120" height="60" as="geometry" />
        </mxCell>
        <mxCell id="3xbo5UEQtIslyqOtfA-L-1" value="amount" style="ellipse;whiteSpace=wrap;html=1;align=center;" parent="1" vertex="1">
          <mxGeometry x="750" y="1291.1100000000001" width="100" height="40" as="geometry" />
        </mxCell>
        <mxCell id="3xbo5UEQtIslyqOtfA-L-2" value="status" style="ellipse;whiteSpace=wrap;html=1;align=center;" parent="1" vertex="1">
          <mxGeometry x="630" y="1280.0000000000002" width="100" height="40" as="geometry" />
        </mxCell>
        <mxCell id="3xbo5UEQtIslyqOtfA-L-3" value="" style="endArrow=none;html=1;rounded=0;entryX=0.5;entryY=0;entryDx=0;entryDy=0;exitX=0.75;exitY=1;exitDx=0;exitDy=0;" parent="1" source="n2j3eRoGuqpQMVSQmy-N-2" target="3xbo5UEQtIslyqOtfA-L-1" edge="1">
          <mxGeometry relative="1" as="geometry">
            <mxPoint x="710" y="1167.89" as="sourcePoint" />
            <mxPoint x="570" y="987.89" as="targetPoint" />
          </mxGeometry>
        </mxCell>
        <mxCell id="3xbo5UEQtIslyqOtfA-L-4" value="" style="endArrow=none;html=1;rounded=0;exitX=0.5;exitY=1;exitDx=0;exitDy=0;entryX=0.5;entryY=0;entryDx=0;entryDy=0;" parent="1" source="n2j3eRoGuqpQMVSQmy-N-2" target="3xbo5UEQtIslyqOtfA-L-2" edge="1">
          <mxGeometry relative="1" as="geometry">
            <mxPoint x="460" y="1107.89" as="sourcePoint" />
            <mxPoint x="580" y="1137.89" as="targetPoint" />
          </mxGeometry>
        </mxCell>
        <mxCell id="3xbo5UEQtIslyqOtfA-L-6" value="" style="endArrow=none;html=1;rounded=0;exitX=1;exitY=1;exitDx=0;exitDy=0;entryX=0;entryY=0.5;entryDx=0;entryDy=0;" parent="1" source="3xbo5UEQtIslyqOtfA-L-9" target="n2j3eRoGuqpQMVSQmy-N-2" edge="1">
          <mxGeometry relative="1" as="geometry">
            <mxPoint x="410.0000000000002" y="1022.89" as="sourcePoint" />
            <mxPoint x="860" y="957.89" as="targetPoint" />
            <Array as="points" />
          </mxGeometry>
        </mxCell>
        <mxCell id="3xbo5UEQtIslyqOtfA-L-8" value="n" style="resizable=0;html=1;whiteSpace=wrap;align=right;verticalAlign=bottom;" parent="3xbo5UEQtIslyqOtfA-L-6" connectable="0" vertex="1">
          <mxGeometry x="1" relative="1" as="geometry">
            <mxPoint y="-30" as="offset" />
          </mxGeometry>
        </mxCell>
        <mxCell id="3xbo5UEQtIslyqOtfA-L-10" value="" style="endArrow=none;html=1;rounded=0;exitX=0.75;exitY=1;exitDx=0;exitDy=0;entryX=0;entryY=0;entryDx=0;entryDy=0;" parent="1" source="iNVdrL56-xvOq6BtC5d2-1" target="3xbo5UEQtIslyqOtfA-L-9" edge="1">
          <mxGeometry relative="1" as="geometry">
            <mxPoint x="452" y="959" as="sourcePoint" />
            <mxPoint x="910" y="1019" as="targetPoint" />
          </mxGeometry>
        </mxCell>
        <mxCell id="3xbo5UEQtIslyqOtfA-L-11" value="1" style="resizable=0;html=1;whiteSpace=wrap;align=left;verticalAlign=bottom;" parent="3xbo5UEQtIslyqOtfA-L-10" connectable="0" vertex="1">
          <mxGeometry x="-1" relative="1" as="geometry">
            <mxPoint x="10" y="20" as="offset" />
          </mxGeometry>
        </mxCell>
        <mxCell id="3xbo5UEQtIslyqOtfA-L-9" value="Make" style="shape=rhombus;perimeter=rhombusPerimeter;whiteSpace=wrap;html=1;align=center;" parent="1" vertex="1">
          <mxGeometry x="430" y="980" width="120" height="60" as="geometry" />
        </mxCell>
        <mxCell id="vBVgEssqGpMtFDzJ0u2M-1" value="activity" style="rounded=0;whiteSpace=wrap;html=1;fillColor=#dae8fc;strokeColor=#6c8ebf;" parent="1" vertex="1">
          <mxGeometry x="1605.31" y="790" width="120" height="60" as="geometry" />
        </mxCell>
        <mxCell id="vBVgEssqGpMtFDzJ0u2M-2" value="&lt;u&gt;id&lt;/u&gt;" style="ellipse;whiteSpace=wrap;html=1;align=center;fillColor=#dae8fc;strokeColor=#6c8ebf;" parent="1" vertex="1">
          <mxGeometry x="1805.31" y="800" width="100" height="40" as="geometry" />
        </mxCell>
        <mxCell id="vBVgEssqGpMtFDzJ0u2M-3" value="" style="endArrow=none;html=1;rounded=0;exitX=0;exitY=0.5;exitDx=0;exitDy=0;entryX=1;entryY=0.25;entryDx=0;entryDy=0;" parent="1" source="vBVgEssqGpMtFDzJ0u2M-2" target="vBVgEssqGpMtFDzJ0u2M-1" edge="1">
          <mxGeometry relative="1" as="geometry">
            <mxPoint x="1150.31" y="1150" as="sourcePoint" />
            <mxPoint x="1080.31" y="1190" as="targetPoint" />
          </mxGeometry>
        </mxCell>
        <mxCell id="vBVgEssqGpMtFDzJ0u2M-4" value="date" style="ellipse;whiteSpace=wrap;html=1;align=center;" parent="1" vertex="1">
          <mxGeometry x="1805.31" y="860" width="100" height="40" as="geometry" />
        </mxCell>
        <mxCell id="vBVgEssqGpMtFDzJ0u2M-5" value="" style="endArrow=none;html=1;rounded=0;exitX=1;exitY=1;exitDx=0;exitDy=0;entryX=0;entryY=0;entryDx=0;entryDy=0;" parent="1" source="vBVgEssqGpMtFDzJ0u2M-1" target="vBVgEssqGpMtFDzJ0u2M-4" edge="1">
          <mxGeometry relative="1" as="geometry">
            <mxPoint x="1110.31" y="1220" as="sourcePoint" />
            <mxPoint x="1140.31" y="1289" as="targetPoint" />
          </mxGeometry>
        </mxCell>
        <mxCell id="vBVgEssqGpMtFDzJ0u2M-6" value="detail" style="ellipse;whiteSpace=wrap;html=1;align=center;" parent="1" vertex="1">
          <mxGeometry x="1655.31" y="889.9999999999999" width="100" height="40" as="geometry" />
        </mxCell>
        <mxCell id="vBVgEssqGpMtFDzJ0u2M-7" value="" style="endArrow=none;html=1;rounded=0;entryX=0.5;entryY=0;entryDx=0;entryDy=0;exitX=0.5;exitY=1;exitDx=0;exitDy=0;" parent="1" source="vBVgEssqGpMtFDzJ0u2M-1" target="vBVgEssqGpMtFDzJ0u2M-6" edge="1">
          <mxGeometry relative="1" as="geometry">
            <mxPoint x="1790.31" y="1190" as="sourcePoint" />
            <mxPoint x="1340.31" y="1300" as="targetPoint" />
          </mxGeometry>
        </mxCell>
        <mxCell id="vBVgEssqGpMtFDzJ0u2M-8" value="" style="endArrow=none;html=1;rounded=0;exitX=0.5;exitY=1;exitDx=0;exitDy=0;entryX=0.5;entryY=0;entryDx=0;entryDy=0;" parent="1" source="vBVgEssqGpMtFDzJ0u2M-11" target="vBVgEssqGpMtFDzJ0u2M-1" edge="1">
          <mxGeometry relative="1" as="geometry">
            <mxPoint x="1095.31" y="870" as="sourcePoint" />
            <mxPoint x="1255.31" y="870" as="targetPoint" />
          </mxGeometry>
        </mxCell>
        <mxCell id="vBVgEssqGpMtFDzJ0u2M-10" value="n" style="resizable=0;html=1;whiteSpace=wrap;align=right;verticalAlign=bottom;" parent="vBVgEssqGpMtFDzJ0u2M-8" connectable="0" vertex="1">
          <mxGeometry x="1" relative="1" as="geometry">
            <mxPoint x="10" y="-10" as="offset" />
          </mxGeometry>
        </mxCell>
        <mxCell id="vBVgEssqGpMtFDzJ0u2M-12" value="" style="endArrow=none;html=1;rounded=0;entryX=0.5;entryY=0;entryDx=0;entryDy=0;exitX=0.25;exitY=1;exitDx=0;exitDy=0;" parent="1" source="iNVdrL56-xvOq6BtC5d2-2" target="vBVgEssqGpMtFDzJ0u2M-11" edge="1">
          <mxGeometry relative="1" as="geometry">
            <mxPoint x="1785.31" y="640" as="sourcePoint" />
            <mxPoint x="1695.31" y="750" as="targetPoint" />
          </mxGeometry>
        </mxCell>
        <mxCell id="vBVgEssqGpMtFDzJ0u2M-13" value="1" style="resizable=0;html=1;whiteSpace=wrap;align=left;verticalAlign=bottom;" parent="vBVgEssqGpMtFDzJ0u2M-12" connectable="0" vertex="1">
          <mxGeometry x="-1" relative="1" as="geometry">
            <mxPoint x="-10" y="30" as="offset" />
          </mxGeometry>
        </mxCell>
        <mxCell id="vBVgEssqGpMtFDzJ0u2M-11" value="Has" style="shape=rhombus;perimeter=rhombusPerimeter;whiteSpace=wrap;html=1;align=center;" parent="1" vertex="1">
          <mxGeometry x="1573.31" y="670" width="120" height="60" as="geometry" />
        </mxCell>
        <mxCell id="7KzSLLdqEDkj0V6AdJ57-1" value="payment_method" style="rounded=0;whiteSpace=wrap;html=1;fillColor=#60a917;strokeColor=#2D7600;fontColor=#ffffff;" parent="1" vertex="1">
          <mxGeometry x="1180" y="1080.22" width="120" height="60" as="geometry" />
        </mxCell>
        <mxCell id="7KzSLLdqEDkj0V6AdJ57-3" value="&lt;u&gt;id&lt;/u&gt;" style="ellipse;whiteSpace=wrap;html=1;align=center;fillColor=#60a917;strokeColor=#2D7600;fontColor=#ffffff;" parent="1" vertex="1">
          <mxGeometry x="1090" y="1240.0000000000002" width="100" height="40" as="geometry" />
        </mxCell>
        <mxCell id="7KzSLLdqEDkj0V6AdJ57-5" value="name" style="ellipse;whiteSpace=wrap;html=1;align=center;" parent="1" vertex="1">
          <mxGeometry x="1260" y="1230.0000000000002" width="100" height="40" as="geometry" />
        </mxCell>
        <mxCell id="7KzSLLdqEDkj0V6AdJ57-6" value="" style="endArrow=none;html=1;rounded=0;exitX=0.5;exitY=0;exitDx=0;exitDy=0;entryX=0.75;entryY=1;entryDx=0;entryDy=0;" parent="1" source="7KzSLLdqEDkj0V6AdJ57-5" target="7KzSLLdqEDkj0V6AdJ57-1" edge="1">
          <mxGeometry relative="1" as="geometry">
            <mxPoint x="1530" y="1473.55" as="sourcePoint" />
            <mxPoint x="1510" y="1373.55" as="targetPoint" />
          </mxGeometry>
        </mxCell>
        <mxCell id="7KzSLLdqEDkj0V6AdJ57-7" value="" style="endArrow=none;html=1;rounded=0;exitX=0.25;exitY=1;exitDx=0;exitDy=0;entryX=0.5;entryY=0;entryDx=0;entryDy=0;" parent="1" source="7KzSLLdqEDkj0V6AdJ57-1" target="7KzSLLdqEDkj0V6AdJ57-3" edge="1">
          <mxGeometry relative="1" as="geometry">
            <mxPoint x="1530" y="1473.55" as="sourcePoint" />
            <mxPoint x="1510" y="1373.55" as="targetPoint" />
          </mxGeometry>
        </mxCell>
        <mxCell id="7KzSLLdqEDkj0V6AdJ57-8" value="" style="endArrow=none;html=1;rounded=0;entryX=0;entryY=0.5;entryDx=0;entryDy=0;exitX=1;exitY=0.5;exitDx=0;exitDy=0;" parent="1" source="7KzSLLdqEDkj0V6AdJ57-11" target="7KzSLLdqEDkj0V6AdJ57-1" edge="1">
          <mxGeometry relative="1" as="geometry">
            <mxPoint x="960" y="1030" as="sourcePoint" />
            <mxPoint x="1080" y="1099.22" as="targetPoint" />
          </mxGeometry>
        </mxCell>
        <mxCell id="7KzSLLdqEDkj0V6AdJ57-10" value="1" style="resizable=0;html=1;whiteSpace=wrap;align=right;verticalAlign=bottom;" parent="7KzSLLdqEDkj0V6AdJ57-8" connectable="0" vertex="1">
          <mxGeometry x="1" relative="1" as="geometry" />
        </mxCell>
        <mxCell id="7KzSLLdqEDkj0V6AdJ57-12" value="" style="endArrow=none;html=1;rounded=0;exitX=1;exitY=0.5;exitDx=0;exitDy=0;entryX=0;entryY=0.5;entryDx=0;entryDy=0;" parent="1" source="n2j3eRoGuqpQMVSQmy-N-2" target="7KzSLLdqEDkj0V6AdJ57-11" edge="1">
          <mxGeometry relative="1" as="geometry">
            <mxPoint x="860" y="940" as="sourcePoint" />
            <mxPoint x="1170" y="980" as="targetPoint" />
          </mxGeometry>
        </mxCell>
        <mxCell id="7KzSLLdqEDkj0V6AdJ57-13" value="n" style="resizable=0;html=1;whiteSpace=wrap;align=left;verticalAlign=bottom;" parent="7KzSLLdqEDkj0V6AdJ57-12" connectable="0" vertex="1">
          <mxGeometry x="-1" relative="1" as="geometry" />
        </mxCell>
        <mxCell id="7KzSLLdqEDkj0V6AdJ57-11" value="Apply" style="shape=rhombus;perimeter=rhombusPerimeter;whiteSpace=wrap;html=1;align=center;" parent="1" vertex="1">
          <mxGeometry x="910.31" y="1150" width="120" height="60" as="geometry" />
        </mxCell>
        <mxCell id="YvJkIO8zlgVCkEtN225p-1" value="note" style="ellipse;whiteSpace=wrap;html=1;align=center;" parent="1" vertex="1">
          <mxGeometry x="459.69000000000005" y="660" width="100" height="40" as="geometry" />
        </mxCell>
        <mxCell id="YvJkIO8zlgVCkEtN225p-2" value="" style="endArrow=none;html=1;rounded=0;exitX=0.5;exitY=0;exitDx=0;exitDy=0;entryX=0.353;entryY=1.001;entryDx=0;entryDy=0;entryPerimeter=0;" parent="1" source="YvJkIO8zlgVCkEtN225p-1" target="iNVdrL56-xvOq6BtC5d2-12" edge="1">
          <mxGeometry relative="1" as="geometry">
            <mxPoint x="549.69" y="790" as="sourcePoint" />
            <mxPoint x="639.69" y="500" as="targetPoint" />
          </mxGeometry>
        </mxCell>
        <mxCell id="Ar5IEPrgosHr9Q0w3b6N-1" value="note" style="ellipse;whiteSpace=wrap;html=1;align=center;" parent="1" vertex="1">
          <mxGeometry x="860" y="1260.0000000000002" width="100" height="40" as="geometry" />
        </mxCell>
        <mxCell id="Ar5IEPrgosHr9Q0w3b6N-2" value="" style="endArrow=none;html=1;rounded=0;exitX=1;exitY=1;exitDx=0;exitDy=0;entryX=0.5;entryY=0;entryDx=0;entryDy=0;" parent="1" source="n2j3eRoGuqpQMVSQmy-N-2" target="Ar5IEPrgosHr9Q0w3b6N-1" edge="1">
          <mxGeometry relative="1" as="geometry">
            <mxPoint x="820" y="1057.1100000000001" as="sourcePoint" />
            <mxPoint x="640" y="997.11" as="targetPoint" />
          </mxGeometry>
        </mxCell>
        <mxCell id="IPTkmz2OIgdXlzSdZHqn-17" value="amenity" style="rounded=0;whiteSpace=wrap;html=1;fillColor=#ffe6cc;strokeColor=#d79b00;" parent="1" vertex="1">
          <mxGeometry x="1651.3199999999997" y="50" width="120" height="60" as="geometry" />
        </mxCell>
        <mxCell id="IPTkmz2OIgdXlzSdZHqn-18" value="&lt;u&gt;id&lt;/u&gt;" style="ellipse;whiteSpace=wrap;html=1;align=center;fillColor=#ffe6cc;strokeColor=#d79b00;" parent="1" vertex="1">
          <mxGeometry x="1855.3099999999997" y="20" width="100" height="40" as="geometry" />
        </mxCell>
        <mxCell id="IPTkmz2OIgdXlzSdZHqn-19" value="" style="endArrow=none;html=1;rounded=0;exitX=0;exitY=0.5;exitDx=0;exitDy=0;entryX=1;entryY=0.25;entryDx=0;entryDy=0;" parent="1" source="IPTkmz2OIgdXlzSdZHqn-18" target="IPTkmz2OIgdXlzSdZHqn-17" edge="1">
          <mxGeometry relative="1" as="geometry">
            <mxPoint x="1621.0099999999998" y="460" as="sourcePoint" />
            <mxPoint x="1781.0099999999998" y="460" as="targetPoint" />
          </mxGeometry>
        </mxCell>
        <mxCell id="IPTkmz2OIgdXlzSdZHqn-20" value="name" style="ellipse;whiteSpace=wrap;html=1;align=center;" parent="1" vertex="1">
          <mxGeometry x="1855.3099999999997" y="80" width="100" height="40" as="geometry" />
        </mxCell>
        <mxCell id="IPTkmz2OIgdXlzSdZHqn-21" value="" style="endArrow=none;html=1;rounded=0;entryX=0;entryY=0.5;entryDx=0;entryDy=0;exitX=1;exitY=0.75;exitDx=0;exitDy=0;" parent="1" source="IPTkmz2OIgdXlzSdZHqn-17" target="IPTkmz2OIgdXlzSdZHqn-20" edge="1">
          <mxGeometry relative="1" as="geometry">
            <mxPoint x="1611.0099999999998" y="500" as="sourcePoint" />
            <mxPoint x="1811.0099999999998" y="490" as="targetPoint" />
          </mxGeometry>
        </mxCell>
        <mxCell id="IPTkmz2OIgdXlzSdZHqn-25" value="status" style="ellipse;whiteSpace=wrap;html=1;align=center;" parent="1" vertex="1">
          <mxGeometry x="780" y="20" width="100" height="40" as="geometry" />
        </mxCell>
        <mxCell id="IPTkmz2OIgdXlzSdZHqn-26" value="" style="endArrow=none;html=1;rounded=0;exitX=0.5;exitY=1;exitDx=0;exitDy=0;entryX=0.75;entryY=0;entryDx=0;entryDy=0;" parent="1" source="IPTkmz2OIgdXlzSdZHqn-25" target="iNVdrL56-xvOq6BtC5d2-3" edge="1">
          <mxGeometry relative="1" as="geometry">
            <mxPoint x="775" y="94" as="sourcePoint" />
            <mxPoint x="750" y="160" as="targetPoint" />
          </mxGeometry>
        </mxCell>
        <mxCell id="IPTkmz2OIgdXlzSdZHqn-36" value="" style="endArrow=none;html=1;rounded=0;exitX=1;exitY=0.5;exitDx=0;exitDy=0;entryX=0;entryY=0.5;entryDx=0;entryDy=0;" parent="1" source="2u28zUPf4gRlcckiYOSw-20" target="2u28zUPf4gRlcckiYOSw-19" edge="1">
          <mxGeometry relative="1" as="geometry">
            <mxPoint x="1150.31" y="150" as="sourcePoint" />
            <mxPoint x="1250" y="200" as="targetPoint" />
          </mxGeometry>
        </mxCell>
        <mxCell id="IPTkmz2OIgdXlzSdZHqn-38" value="n" style="resizable=0;html=1;whiteSpace=wrap;align=right;verticalAlign=bottom;" parent="IPTkmz2OIgdXlzSdZHqn-36" connectable="0" vertex="1">
          <mxGeometry x="1" relative="1" as="geometry">
            <mxPoint y="-10" as="offset" />
          </mxGeometry>
        </mxCell>
        <mxCell id="IPTkmz2OIgdXlzSdZHqn-39" value="" style="endArrow=none;html=1;rounded=0;exitX=1;exitY=0.5;exitDx=0;exitDy=0;entryX=0;entryY=0.5;entryDx=0;entryDy=0;" parent="1" source="2u28zUPf4gRlcckiYOSw-21" target="IPTkmz2OIgdXlzSdZHqn-17" edge="1">
          <mxGeometry relative="1" as="geometry">
            <mxPoint x="1570" y="210" as="sourcePoint" />
            <mxPoint x="1270" y="360" as="targetPoint" />
          </mxGeometry>
        </mxCell>
        <mxCell id="IPTkmz2OIgdXlzSdZHqn-41" value="1" style="resizable=0;html=1;whiteSpace=wrap;align=right;verticalAlign=bottom;" parent="IPTkmz2OIgdXlzSdZHqn-39" connectable="0" vertex="1">
          <mxGeometry x="1" relative="1" as="geometry" />
        </mxCell>
        <mxCell id="IPTkmz2OIgdXlzSdZHqn-43" value="" style="endArrow=none;html=1;rounded=0;exitX=1;exitY=0.5;exitDx=0;exitDy=0;entryX=0;entryY=0.5;entryDx=0;entryDy=0;" parent="1" source="2u28zUPf4gRlcckiYOSw-19" target="2u28zUPf4gRlcckiYOSw-21" edge="1">
          <mxGeometry relative="1" as="geometry">
            <mxPoint x="1370" y="200" as="sourcePoint" />
            <mxPoint x="1450" y="210" as="targetPoint" />
          </mxGeometry>
        </mxCell>
        <mxCell id="IPTkmz2OIgdXlzSdZHqn-44" value="n" style="resizable=0;html=1;whiteSpace=wrap;align=left;verticalAlign=bottom;" parent="IPTkmz2OIgdXlzSdZHqn-43" connectable="0" vertex="1">
          <mxGeometry x="-1" relative="1" as="geometry">
            <mxPoint y="-10" as="offset" />
          </mxGeometry>
        </mxCell>
        <mxCell id="IPTkmz2OIgdXlzSdZHqn-47" value="" style="endArrow=none;html=1;rounded=0;exitX=0.25;exitY=0;exitDx=0;exitDy=0;entryX=0.5;entryY=1;entryDx=0;entryDy=0;" parent="1" source="iNVdrL56-xvOq6BtC5d2-5" target="2u28zUPf4gRlcckiYOSw-20" edge="1">
          <mxGeometry relative="1" as="geometry">
            <mxPoint x="770" y="210" as="sourcePoint" />
            <mxPoint x="1030.31" y="150" as="targetPoint" />
          </mxGeometry>
        </mxCell>
        <mxCell id="IPTkmz2OIgdXlzSdZHqn-48" value="1" style="resizable=0;html=1;whiteSpace=wrap;align=left;verticalAlign=bottom;" parent="IPTkmz2OIgdXlzSdZHqn-47" connectable="0" vertex="1">
          <mxGeometry x="-1" relative="1" as="geometry" />
        </mxCell>
        <mxCell id="BYPQcYxRW-oh7XwG-4qY-2" value="service" style="rounded=0;whiteSpace=wrap;html=1;fillColor=#FFCCFF;strokeColor=#ae4132;" parent="1" vertex="1">
          <mxGeometry x="1651.32" y="1060.22" width="120" height="60" as="geometry" />
        </mxCell>
        <mxCell id="BYPQcYxRW-oh7XwG-4qY-4" value="" style="endArrow=none;html=1;rounded=0;exitX=1;exitY=1;exitDx=0;exitDy=0;entryX=0;entryY=0.5;entryDx=0;entryDy=0;" parent="1" source="xHkbSlVXgJuUYoU576vc-14" target="xHkbSlVXgJuUYoU576vc-8" edge="1">
          <mxGeometry relative="1" as="geometry">
            <mxPoint x="1130" y="855" as="sourcePoint" />
            <mxPoint x="1290" y="890" as="targetPoint" />
          </mxGeometry>
        </mxCell>
        <mxCell id="BYPQcYxRW-oh7XwG-4qY-6" value="n" style="resizable=0;html=1;whiteSpace=wrap;align=right;verticalAlign=bottom;" parent="BYPQcYxRW-oh7XwG-4qY-4" connectable="0" vertex="1">
          <mxGeometry x="1" relative="1" as="geometry">
            <mxPoint x="-4" y="-10" as="offset" />
          </mxGeometry>
        </mxCell>
        <mxCell id="BYPQcYxRW-oh7XwG-4qY-8" value="" style="endArrow=none;html=1;rounded=0;exitX=1;exitY=1;exitDx=0;exitDy=0;entryX=0;entryY=0;entryDx=0;entryDy=0;" parent="1" source="iNVdrL56-xvOq6BtC5d2-12" target="xHkbSlVXgJuUYoU576vc-14" edge="1">
          <mxGeometry relative="1" as="geometry">
            <mxPoint x="860" y="690" as="sourcePoint" />
            <mxPoint x="1070" y="825" as="targetPoint" />
          </mxGeometry>
        </mxCell>
        <mxCell id="BYPQcYxRW-oh7XwG-4qY-9" value="1" style="resizable=0;html=1;whiteSpace=wrap;align=left;verticalAlign=bottom;" parent="BYPQcYxRW-oh7XwG-4qY-8" connectable="0" vertex="1">
          <mxGeometry x="-1" relative="1" as="geometry">
            <mxPoint x="20" y="20" as="offset" />
          </mxGeometry>
        </mxCell>
        <mxCell id="BYPQcYxRW-oh7XwG-4qY-11" value="" style="endArrow=none;html=1;rounded=0;exitX=1;exitY=1;exitDx=0;exitDy=0;entryX=0;entryY=0;entryDx=0;entryDy=0;" parent="1" target="BYPQcYxRW-oh7XwG-4qY-2" edge="1">
          <mxGeometry relative="1" as="geometry">
            <mxPoint x="1600" y="985" as="sourcePoint" />
            <mxPoint x="1230" y="920" as="targetPoint" />
          </mxGeometry>
        </mxCell>
        <mxCell id="BYPQcYxRW-oh7XwG-4qY-13" value="1" style="resizable=0;html=1;whiteSpace=wrap;align=right;verticalAlign=bottom;" parent="BYPQcYxRW-oh7XwG-4qY-11" connectable="0" vertex="1">
          <mxGeometry x="1" relative="1" as="geometry">
            <mxPoint y="-10" as="offset" />
          </mxGeometry>
        </mxCell>
        <mxCell id="BYPQcYxRW-oh7XwG-4qY-16" value="" style="endArrow=none;html=1;rounded=0;exitX=1;exitY=0.5;exitDx=0;exitDy=0;entryX=0;entryY=0;entryDx=0;entryDy=0;" parent="1" source="xHkbSlVXgJuUYoU576vc-8" target="xHkbSlVXgJuUYoU576vc-15" edge="1">
          <mxGeometry relative="1" as="geometry">
            <mxPoint x="1410" y="920" as="sourcePoint" />
            <mxPoint x="1540" y="955" as="targetPoint" />
          </mxGeometry>
        </mxCell>
        <mxCell id="BYPQcYxRW-oh7XwG-4qY-17" value="n" style="resizable=0;html=1;whiteSpace=wrap;align=left;verticalAlign=bottom;" parent="BYPQcYxRW-oh7XwG-4qY-16" connectable="0" vertex="1">
          <mxGeometry x="-1" relative="1" as="geometry" />
        </mxCell>
        <mxCell id="BYPQcYxRW-oh7XwG-4qY-19" value="&lt;u&gt;id&lt;/u&gt;" style="ellipse;whiteSpace=wrap;html=1;align=center;fillColor=#FFCCFF;strokeColor=#ae4132;" parent="1" vertex="1">
          <mxGeometry x="1496.01" y="1260" width="100" height="40" as="geometry" />
        </mxCell>
        <mxCell id="BYPQcYxRW-oh7XwG-4qY-20" value="" style="endArrow=none;html=1;rounded=0;exitX=0;exitY=1;exitDx=0;exitDy=0;entryX=0.5;entryY=0;entryDx=0;entryDy=0;" parent="1" source="BYPQcYxRW-oh7XwG-4qY-2" target="BYPQcYxRW-oh7XwG-4qY-19" edge="1">
          <mxGeometry relative="1" as="geometry">
            <mxPoint x="1633" y="770" as="sourcePoint" />
            <mxPoint x="1910" y="1000" as="targetPoint" />
          </mxGeometry>
        </mxCell>
        <mxCell id="BYPQcYxRW-oh7XwG-4qY-21" value="name" style="ellipse;whiteSpace=wrap;html=1;align=center;" parent="1" vertex="1">
          <mxGeometry x="1725.31" y="1270" width="100" height="40" as="geometry" />
        </mxCell>
        <mxCell id="BYPQcYxRW-oh7XwG-4qY-23" value="" style="endArrow=none;html=1;rounded=0;entryX=0.75;entryY=1;entryDx=0;entryDy=0;exitX=0.5;exitY=0;exitDx=0;exitDy=0;" parent="1" source="BYPQcYxRW-oh7XwG-4qY-21" target="BYPQcYxRW-oh7XwG-4qY-2" edge="1">
          <mxGeometry relative="1" as="geometry">
            <mxPoint x="1733" y="1020" as="sourcePoint" />
            <mxPoint x="1753" y="950" as="targetPoint" />
          </mxGeometry>
        </mxCell>
        <mxCell id="8W8eEZNq5GrCyqseL1IK-7" value="description" style="ellipse;whiteSpace=wrap;html=1;align=center;" parent="1" vertex="1">
          <mxGeometry x="1845.31" y="1200" width="100" height="40" as="geometry" />
        </mxCell>
        <mxCell id="8W8eEZNq5GrCyqseL1IK-8" value="" style="endArrow=none;html=1;rounded=0;entryX=1;entryY=1;entryDx=0;entryDy=0;exitX=0;exitY=0.5;exitDx=0;exitDy=0;" parent="1" source="8W8eEZNq5GrCyqseL1IK-7" target="BYPQcYxRW-oh7XwG-4qY-2" edge="1">
          <mxGeometry relative="1" as="geometry">
            <mxPoint x="1902.99" y="1179.78" as="sourcePoint" />
            <mxPoint x="1792.99" y="1079.78" as="targetPoint" />
          </mxGeometry>
        </mxCell>
        <mxCell id="8W8eEZNq5GrCyqseL1IK-11" value="price" style="ellipse;whiteSpace=wrap;html=1;align=center;" parent="1" vertex="1">
          <mxGeometry x="1250" y="490" width="100" height="40" as="geometry" />
        </mxCell>
        <mxCell id="8W8eEZNq5GrCyqseL1IK-12" value="" style="endArrow=none;html=1;rounded=0;exitX=0.5;exitY=0;exitDx=0;exitDy=0;entryX=0.5;entryY=1;entryDx=0;entryDy=0;" parent="1" source="8W8eEZNq5GrCyqseL1IK-11" target="iNVdrL56-xvOq6BtC5d2-5" edge="1">
          <mxGeometry relative="1" as="geometry">
            <mxPoint x="630" y="490" as="sourcePoint" />
            <mxPoint x="380" y="560" as="targetPoint" />
          </mxGeometry>
        </mxCell>
        <mxCell id="8W8eEZNq5GrCyqseL1IK-20" value="guest_name" style="ellipse;whiteSpace=wrap;html=1;align=center;" parent="1" vertex="1">
          <mxGeometry x="249.69" y="550" width="100" height="40" as="geometry" />
        </mxCell>
        <mxCell id="8W8eEZNq5GrCyqseL1IK-21" value="" style="endArrow=none;html=1;rounded=0;exitX=1;exitY=0.5;exitDx=0;exitDy=0;entryX=0;entryY=0.75;entryDx=0;entryDy=0;" parent="1" source="8W8eEZNq5GrCyqseL1IK-20" target="iNVdrL56-xvOq6BtC5d2-12" edge="1">
          <mxGeometry relative="1" as="geometry">
            <mxPoint x="529.69" y="610" as="sourcePoint" />
            <mxPoint x="639.69" y="680" as="targetPoint" />
          </mxGeometry>
        </mxCell>
        <mxCell id="8W8eEZNq5GrCyqseL1IK-22" value="guest_email" style="ellipse;whiteSpace=wrap;html=1;align=center;" parent="1" vertex="1">
          <mxGeometry x="289.69" y="600" width="100" height="40" as="geometry" />
        </mxCell>
        <mxCell id="8W8eEZNq5GrCyqseL1IK-23" value="guest_phone" style="ellipse;whiteSpace=wrap;html=1;align=center;" parent="1" vertex="1">
          <mxGeometry x="359.69" y="640" width="100" height="40" as="geometry" />
        </mxCell>
        <mxCell id="8W8eEZNq5GrCyqseL1IK-24" value="" style="endArrow=none;html=1;rounded=0;exitX=1;exitY=0.5;exitDx=0;exitDy=0;entryX=0;entryY=1;entryDx=0;entryDy=0;" parent="1" source="8W8eEZNq5GrCyqseL1IK-22" target="iNVdrL56-xvOq6BtC5d2-12" edge="1">
          <mxGeometry relative="1" as="geometry">
            <mxPoint x="519.69" y="660" as="sourcePoint" />
            <mxPoint x="639.69" y="695" as="targetPoint" />
          </mxGeometry>
        </mxCell>
        <mxCell id="8W8eEZNq5GrCyqseL1IK-25" value="" style="endArrow=none;html=1;rounded=0;exitX=1;exitY=0;exitDx=0;exitDy=0;entryX=0.25;entryY=1;entryDx=0;entryDy=0;" parent="1" source="8W8eEZNq5GrCyqseL1IK-23" target="iNVdrL56-xvOq6BtC5d2-12" edge="1">
          <mxGeometry relative="1" as="geometry">
            <mxPoint x="519.69" y="720" as="sourcePoint" />
            <mxPoint x="639.69" y="710" as="targetPoint" />
          </mxGeometry>
        </mxCell>
        <mxCell id="2u28zUPf4gRlcckiYOSw-11" value="status" style="ellipse;whiteSpace=wrap;html=1;align=center;" parent="1" vertex="1">
          <mxGeometry x="239.69" y="480.03" width="100" height="40" as="geometry" />
        </mxCell>
        <mxCell id="2u28zUPf4gRlcckiYOSw-12" value="" style="endArrow=none;html=1;rounded=0;exitX=1;exitY=0.5;exitDx=0;exitDy=0;entryX=0;entryY=0.5;entryDx=0;entryDy=0;" parent="1" source="2u28zUPf4gRlcckiYOSw-11" target="iNVdrL56-xvOq6BtC5d2-12" edge="1">
          <mxGeometry relative="1" as="geometry">
            <mxPoint x="669.69" y="674.98" as="sourcePoint" />
            <mxPoint x="579.69" y="674.98" as="targetPoint" />
          </mxGeometry>
        </mxCell>
        <mxCell id="2u28zUPf4gRlcckiYOSw-19" value="room_type_amenity" style="shape=ext;margin=3;double=1;whiteSpace=wrap;html=1;align=center;fillColor=#ffcccc;strokeColor=#36393d;" parent="1" vertex="1">
          <mxGeometry x="1190" y="90" width="120" height="60" as="geometry" />
        </mxCell>
        <mxCell id="2u28zUPf4gRlcckiYOSw-20" value="Has" style="shape=rhombus;double=1;perimeter=rhombusPerimeter;whiteSpace=wrap;html=1;align=center;" parent="1" vertex="1">
          <mxGeometry x="990" y="140" width="120" height="60" as="geometry" />
        </mxCell>
        <mxCell id="2u28zUPf4gRlcckiYOSw-21" value="Has" style="shape=rhombus;double=1;perimeter=rhombusPerimeter;whiteSpace=wrap;html=1;align=center;" parent="1" vertex="1">
          <mxGeometry x="1431.32" y="30" width="120" height="60" as="geometry" />
        </mxCell>
        <mxCell id="2u28zUPf4gRlcckiYOSw-29" value="price" style="ellipse;whiteSpace=wrap;html=1;align=center;" parent="1" vertex="1">
          <mxGeometry x="1625.31" y="1300" width="100" height="40" as="geometry" />
        </mxCell>
        <mxCell id="2u28zUPf4gRlcckiYOSw-30" value="" style="endArrow=none;html=1;rounded=0;entryX=0.25;entryY=1;entryDx=0;entryDy=0;exitX=0.5;exitY=0;exitDx=0;exitDy=0;" parent="1" source="2u28zUPf4gRlcckiYOSw-29" target="BYPQcYxRW-oh7XwG-4qY-2" edge="1">
          <mxGeometry relative="1" as="geometry">
            <mxPoint x="1855" y="1156" as="sourcePoint" />
            <mxPoint x="1793" y="1080" as="targetPoint" />
          </mxGeometry>
        </mxCell>
        <mxCell id="xHkbSlVXgJuUYoU576vc-1" value="name" style="ellipse;whiteSpace=wrap;html=1;align=center;" parent="1" vertex="1">
          <mxGeometry x="1420" y="360" width="100" height="40" as="geometry" />
        </mxCell>
        <mxCell id="xHkbSlVXgJuUYoU576vc-2" value="" style="endArrow=none;html=1;rounded=0;exitX=0;exitY=0.5;exitDx=0;exitDy=0;entryX=1;entryY=0.25;entryDx=0;entryDy=0;" parent="1" source="xHkbSlVXgJuUYoU576vc-1" target="iNVdrL56-xvOq6BtC5d2-5" edge="1">
          <mxGeometry relative="1" as="geometry">
            <mxPoint x="1435" y="426" as="sourcePoint" />
            <mxPoint x="1370" y="420" as="targetPoint" />
          </mxGeometry>
        </mxCell>
        <mxCell id="xHkbSlVXgJuUYoU576vc-8" value="booked_service" style="shape=ext;margin=3;double=1;whiteSpace=wrap;html=1;align=center;fillColor=#ff99cc;strokeColor=#190033;" parent="1" vertex="1">
          <mxGeometry x="1240" y="900" width="120" height="60" as="geometry" />
        </mxCell>
        <mxCell id="xHkbSlVXgJuUYoU576vc-12" value="date" style="ellipse;whiteSpace=wrap;html=1;align=center;" parent="1" vertex="1">
          <mxGeometry x="459.69000000000005" y="330" width="100" height="40" as="geometry" />
        </mxCell>
        <mxCell id="xHkbSlVXgJuUYoU576vc-13" value="" style="endArrow=none;html=1;rounded=0;exitX=0.5;exitY=1;exitDx=0;exitDy=0;entryX=0.5;entryY=0;entryDx=0;entryDy=0;" parent="1" source="xHkbSlVXgJuUYoU576vc-12" target="iNVdrL56-xvOq6BtC5d2-12" edge="1">
          <mxGeometry relative="1" as="geometry">
            <mxPoint x="919.69" y="630" as="sourcePoint" />
            <mxPoint x="789.69" y="670" as="targetPoint" />
          </mxGeometry>
        </mxCell>
        <mxCell id="xHkbSlVXgJuUYoU576vc-14" value="Has" style="shape=rhombus;double=1;perimeter=rhombusPerimeter;whiteSpace=wrap;html=1;align=center;" parent="1" vertex="1">
          <mxGeometry x="940" y="840" width="120" height="60" as="geometry" />
        </mxCell>
        <mxCell id="xHkbSlVXgJuUYoU576vc-15" value="Has" style="shape=rhombus;double=1;perimeter=rhombusPerimeter;whiteSpace=wrap;html=1;align=center;" parent="1" vertex="1">
          <mxGeometry x="1500" y="950" width="120" height="60" as="geometry" />
        </mxCell>
        <mxCell id="Lo3exk3fOHbxLnW9CW6T-10" value="booked_room_type" style="shape=ext;margin=3;double=1;whiteSpace=wrap;html=1;align=center;fillColor=#e1d5e7;strokeColor=#9673a6;" parent="1" vertex="1">
          <mxGeometry x="900" y="430" width="120" height="60" as="geometry" />
        </mxCell>
        <mxCell id="Lo3exk3fOHbxLnW9CW6T-11" value="" style="endArrow=none;html=1;rounded=0;exitX=1;exitY=0.5;exitDx=0;exitDy=0;entryX=0;entryY=0.5;entryDx=0;entryDy=0;" parent="1" source="Lo3exk3fOHbxLnW9CW6T-17" target="Lo3exk3fOHbxLnW9CW6T-10" edge="1">
          <mxGeometry relative="1" as="geometry">
            <mxPoint x="940" y="510" as="sourcePoint" />
            <mxPoint x="1100" y="510" as="targetPoint" />
          </mxGeometry>
        </mxCell>
        <mxCell id="Lo3exk3fOHbxLnW9CW6T-13" value="n" style="resizable=0;html=1;whiteSpace=wrap;align=right;verticalAlign=bottom;" parent="Lo3exk3fOHbxLnW9CW6T-11" connectable="0" vertex="1">
          <mxGeometry x="1" relative="1" as="geometry" />
        </mxCell>
        <mxCell id="Lo3exk3fOHbxLnW9CW6T-14" value="" style="endArrow=none;html=1;rounded=0;exitX=1;exitY=0.5;exitDx=0;exitDy=0;entryX=0;entryY=0.5;entryDx=0;entryDy=0;" parent="1" source="Lo3exk3fOHbxLnW9CW6T-21" target="iNVdrL56-xvOq6BtC5d2-5" edge="1">
          <mxGeometry relative="1" as="geometry">
            <mxPoint x="1080" y="480" as="sourcePoint" />
            <mxPoint x="1240" y="480" as="targetPoint" />
          </mxGeometry>
        </mxCell>
        <mxCell id="Lo3exk3fOHbxLnW9CW6T-16" value="1" style="resizable=0;html=1;whiteSpace=wrap;align=right;verticalAlign=bottom;" parent="Lo3exk3fOHbxLnW9CW6T-14" connectable="0" vertex="1">
          <mxGeometry x="1" relative="1" as="geometry" />
        </mxCell>
        <mxCell id="Lo3exk3fOHbxLnW9CW6T-18" value="" style="endArrow=none;html=1;rounded=0;exitX=1;exitY=0.5;exitDx=0;exitDy=0;entryX=0;entryY=0.5;entryDx=0;entryDy=0;" parent="1" source="iNVdrL56-xvOq6BtC5d2-12" target="Lo3exk3fOHbxLnW9CW6T-17" edge="1">
          <mxGeometry relative="1" as="geometry">
            <mxPoint x="639.69" y="520" as="sourcePoint" />
            <mxPoint x="849.69" y="480" as="targetPoint" />
          </mxGeometry>
        </mxCell>
        <mxCell id="Lo3exk3fOHbxLnW9CW6T-19" value="1" style="resizable=0;html=1;whiteSpace=wrap;align=left;verticalAlign=bottom;" parent="Lo3exk3fOHbxLnW9CW6T-18" connectable="0" vertex="1">
          <mxGeometry x="-1" relative="1" as="geometry" />
        </mxCell>
        <mxCell id="Lo3exk3fOHbxLnW9CW6T-17" value="Has" style="shape=rhombus;double=1;perimeter=rhombusPerimeter;whiteSpace=wrap;html=1;align=center;" parent="1" vertex="1">
          <mxGeometry x="730" y="440" width="120" height="60" as="geometry" />
        </mxCell>
        <mxCell id="Lo3exk3fOHbxLnW9CW6T-22" value="" style="endArrow=none;html=1;rounded=0;exitX=1;exitY=0.5;exitDx=0;exitDy=0;entryX=0;entryY=0.5;entryDx=0;entryDy=0;" parent="1" source="Lo3exk3fOHbxLnW9CW6T-10" target="Lo3exk3fOHbxLnW9CW6T-21" edge="1">
          <mxGeometry relative="1" as="geometry">
            <mxPoint x="1080" y="440" as="sourcePoint" />
            <mxPoint x="1240" y="410" as="targetPoint" />
          </mxGeometry>
        </mxCell>
        <mxCell id="Lo3exk3fOHbxLnW9CW6T-23" value="n" style="resizable=0;html=1;whiteSpace=wrap;align=left;verticalAlign=bottom;" parent="Lo3exk3fOHbxLnW9CW6T-22" connectable="0" vertex="1">
          <mxGeometry x="-1" relative="1" as="geometry" />
        </mxCell>
        <mxCell id="Lo3exk3fOHbxLnW9CW6T-21" value="Has" style="shape=rhombus;double=1;perimeter=rhombusPerimeter;whiteSpace=wrap;html=1;align=center;" parent="1" vertex="1">
          <mxGeometry x="1100" y="400" width="120" height="60" as="geometry" />
        </mxCell>
        <mxCell id="Lo3exk3fOHbxLnW9CW6T-25" value="number_of_room" style="ellipse;whiteSpace=wrap;html=1;align=center;" parent="1" vertex="1">
          <mxGeometry x="930" y="530" width="100" height="40" as="geometry" />
        </mxCell>
        <mxCell id="Lo3exk3fOHbxLnW9CW6T-26" value="" style="endArrow=none;html=1;rounded=0;entryX=0.5;entryY=1;entryDx=0;entryDy=0;exitX=0.5;exitY=0;exitDx=0;exitDy=0;" parent="1" source="Lo3exk3fOHbxLnW9CW6T-25" target="Lo3exk3fOHbxLnW9CW6T-10" edge="1">
          <mxGeometry relative="1" as="geometry">
            <mxPoint x="760" y="460" as="sourcePoint" />
            <mxPoint x="835" y="334" as="targetPoint" />
          </mxGeometry>
        </mxCell>
      </root>
    </mxGraphModel>
  </diagram>
</mxfile>
